<svg width="28" height="26" viewBox="0 0 28 26" fill="none" xmlns="http://www.w3.org/2000/svg">
<path d="M6.38226 2C3.95468 2 2 3.79179 2 6.01706V19.9829C2 22.2082 3.95468 24 6.38226 24H14.6398V15.3994H12.1588V12.3029H14.6398V9.65737C14.6398 7.57892 16.1057 5.67056 19.4825 5.67056C20.8497 5.67056 21.8608 5.79088 21.8608 5.79088L21.7813 8.68251C21.7813 8.68251 20.7501 8.67358 19.625 8.67358C18.4073 8.67358 18.212 9.18789 18.212 10.0417V12.3029H21.878L21.7183 15.3994H18.212V24H21.6177C24.0453 24 26 22.2082 26 19.9829V6.01708C26 3.79181 24.0453 2.00002 21.6177 2.00002H6.38223L6.38226 2Z" fill="#242424"/>
</svg>
