<svg width="1620" height="332" viewBox="0 0 1620 332" fill="none" xmlns="http://www.w3.org/2000/svg">
<path fill-rule="evenodd" clip-rule="evenodd" d="M171.23 56.182C156.429 60.182 142.985 69.141 130.955 83.022C123.414 91.723 117.583 101.545 111.242 116.227C104.83 131.073 97.086 143.12 89.498 150.055C82.308 156.626 71.67 161.939 63.955 162.812L58 163.485V177.454V191.423L64.25 190.742C83.027 188.694 99.064 180.465 112.711 165.877C122.901 154.983 128.706 145.633 136.532 127.506C139.433 120.785 143.876 112.173 146.405 108.37C152.585 99.075 162.797 89.694 170.936 85.838C176.92 83.002 178.383 82.727 187.5 82.727C196.798 82.727 197.956 82.956 204 85.993C215.801 91.922 224.95 101.564 233.088 116.653L237.174 124.227H251H264.826L268.912 116.653C277.05 101.564 286.199 91.922 298 85.993C304.044 82.956 305.202 82.727 314.5 82.727C323.617 82.727 325.08 83.002 331.064 85.838C338.495 89.359 348.981 98.617 354.123 106.197C355.98 108.935 357.739 111.187 358.031 111.201C358.323 111.215 360.266 107.782 362.35 103.571C364.433 99.361 367.704 93.467 369.619 90.474L373.1 85.032L368.8 80.38C352.965 63.246 334.216 54.206 314.59 54.242C291.968 54.283 271.164 65.907 253.765 88.227L251.036 91.727L247.851 87.727C241.437 79.673 229.018 68.327 222.155 64.25C210.72 57.457 202.315 54.963 189.5 54.562C180.882 54.292 176.926 54.643 171.23 56.182ZM429.5 55.186C404.748 60.507 382.925 79.999 369.4 108.868C358.785 131.527 356.911 135.046 352.034 141.489C342.345 154.287 327.52 163.164 315.75 163.215L313 163.227V177.307V191.386L319.75 190.679C342.706 188.276 363.572 174.662 377.921 152.727C382.277 146.068 384.694 141.407 395.407 119.008C403.1 102.925 413.252 91.915 426 85.83C431.858 83.033 433.438 82.727 442 82.727C450.556 82.727 452.146 83.035 458 85.824C472.471 92.719 484.911 107.47 491.452 125.492C502.953 157.177 526.888 181.913 552.526 188.608L558 190.037V175.84V161.643L551.75 158.799C547.149 156.705 543.389 153.804 537.5 147.805C528.544 138.682 524.626 132.62 518.9 119.029C509.754 97.321 504.41 88.71 492.939 77.195C478.204 62.403 462.491 55.158 444 54.628C438.225 54.462 431.7 54.713 429.5 55.186ZM564 68.118V82.008L571.25 82.389C576.719 82.676 580.113 83.529 585.064 85.859C592.496 89.356 602.96 98.586 608.123 106.197C609.98 108.935 611.751 111.187 612.057 111.201C612.363 111.215 614.163 107.993 616.057 104.04C617.951 100.087 621.202 94.2 623.281 90.958L627.063 85.062L623.921 81.395C610.233 65.412 588.174 54.227 570.34 54.227H564V68.118ZM681.5 55.709C656.341 62.501 636.493 80.709 623.362 109.043C613.919 129.419 610.618 135.511 605.416 142.159C596.222 153.91 584.518 161.161 572.085 162.81L567 163.485V177.428V191.371L572.75 190.721C594.572 188.254 612.06 178.162 627.231 159.281C633.577 151.382 639.06 141.453 648.347 121.036C652.908 111.01 658.688 102.593 665.742 95.705C671.587 89.999 682.422 83.801 688.57 82.648L692 82.004V68.116V54.227L689.25 54.293C687.737 54.329 684.25 54.966 681.5 55.709ZM700 68.002V82.004L703.25 82.625C708.258 83.581 716.94 87.937 722.714 92.392C729.769 97.835 738.009 108.871 742.935 119.477C745.171 124.29 748.762 132.016 750.916 136.647C765.465 167.935 790.141 187.736 818.25 190.679L825 191.386V177.307V163.227L822.25 163.215C818.542 163.199 810.291 160.94 806 158.765C794.788 153.083 783.735 140.785 776.881 126.367C764.665 100.668 761.636 95.019 756.056 87.534C742.687 69.599 723.728 57.463 704.75 54.693L700 54V68.002ZM807.23 56.242C795.094 59.422 784.819 65.475 774.164 75.723L764.752 84.776L768.626 90.814C770.757 94.136 774.049 100.087 775.943 104.04C777.837 107.993 779.637 111.215 779.943 111.201C780.249 111.187 782.02 108.935 783.877 106.197C792.551 93.41 807.662 83.241 819.232 82.404L825 81.987V68.107V54.227L819.75 54.282C816.862 54.312 811.228 55.194 807.23 56.242ZM394.644 140.895C392.564 145.099 389.318 150.952 387.431 153.902C385.544 156.852 384 159.629 384 160.073C384 161.13 398.617 175.22 402.557 177.962C408.07 181.797 419.376 187.016 426 188.784C434.452 191.039 449.364 191.037 457.92 188.779C470.303 185.51 483.7 177.296 494.328 166.456L500.157 160.511L496.647 155.024C494.717 152.007 491.433 146.093 489.35 141.883C487.266 137.672 485.285 134.227 484.947 134.227C484.609 134.227 482.619 136.715 480.524 139.757C475.049 147.706 467.051 154.599 458.257 158.945C451.195 162.435 449.94 162.727 442 162.727C434.088 162.727 432.792 162.428 425.878 159.011C417.004 154.626 410.688 149.312 404.317 140.873C401.765 137.493 399.395 134.395 399.051 133.99C398.707 133.584 396.724 136.692 394.644 140.895ZM648.115 141.977C645.733 146.79 642.48 152.665 640.887 155.034C638.776 158.173 638.237 159.8 638.898 161.034C640.271 163.597 651.906 174.438 657 177.901C667.269 184.883 681.108 190.227 688.923 190.227H692.056L691.778 176.541L691.5 162.855L686.892 161.681C676.499 159.033 665.227 150.608 657.399 139.638C654.883 136.112 652.739 133.227 652.635 133.227C652.531 133.227 650.497 137.165 648.115 141.977ZM734.651 139.676C726.138 151.27 715.859 158.904 705 161.697L700.5 162.855L700.222 176.541L699.944 190.227H703.077C708.67 190.227 718.303 187.153 727.37 182.476C733.895 179.11 738.588 175.666 745.12 169.45C750.004 164.802 754 160.558 754 160.018C754 159.478 753.042 157.69 751.87 156.044C750.699 154.399 747.407 148.597 744.555 143.151L739.37 133.248L734.651 139.676Z" fill="black"/>
<path d="M54.472 266.423V232.823H57.4L72.76 259.031H71.224L86.44 232.823H89.368V266.423H85.96V238.151H86.776L72.76 262.151H71.08L56.968 238.151H57.88V266.423H54.472ZM115.388 266.423V260.855L115.244 259.943V250.631C115.244 248.487 114.636 246.839 113.42 245.687C112.236 244.535 110.46 243.959 108.092 243.959C106.46 243.959 104.908 244.231 103.436 244.775C101.964 245.319 100.716 246.039 99.6918 246.935L98.1558 244.391C99.4358 243.303 100.972 242.471 102.764 241.895C104.556 241.287 106.444 240.983 108.428 240.983C111.692 240.983 114.204 241.799 115.964 243.431C117.756 245.031 118.652 247.479 118.652 250.775V266.423H115.388ZM106.7 266.663C104.812 266.663 103.164 266.359 101.756 265.751C100.38 265.111 99.3238 264.247 98.5878 263.159C97.8518 262.039 97.4838 260.759 97.4838 259.319C97.4838 258.007 97.7878 256.823 98.3958 255.767C99.0358 254.679 100.06 253.815 101.468 253.175C102.908 252.503 104.828 252.167 107.228 252.167H115.916V254.711H107.324C104.892 254.711 103.196 255.143 102.236 256.007C101.308 256.871 100.844 257.943 100.844 259.223C100.844 260.663 101.404 261.815 102.524 262.679C103.644 263.543 105.212 263.975 107.228 263.975C109.148 263.975 110.796 263.543 112.172 262.679C113.58 261.783 114.604 260.503 115.244 258.839L116.012 261.191C115.372 262.855 114.252 264.183 112.652 265.175C111.084 266.167 109.1 266.663 106.7 266.663ZM124.068 266.423L134.724 252.599L134.676 254.279L124.548 241.223H128.388L136.692 252.023L135.252 251.975L143.556 241.223H147.3L137.076 254.423L137.124 252.599L147.876 266.423H143.988L135.204 254.903L136.548 255.095L127.908 266.423H124.068ZM153.549 266.423V241.223H156.957V266.423H153.549ZM155.277 235.655C154.573 235.655 153.981 235.415 153.501 234.935C153.021 234.455 152.781 233.879 152.781 233.207C152.781 232.535 153.021 231.975 153.501 231.527C153.981 231.047 154.573 230.807 155.277 230.807C155.981 230.807 156.573 231.031 157.053 231.479C157.533 231.927 157.773 232.487 157.773 233.159C157.773 233.863 157.533 234.455 157.053 234.935C156.605 235.415 156.013 235.655 155.277 235.655ZM197.928 240.983C199.976 240.983 201.752 241.383 203.256 242.183C204.792 242.951 205.976 244.135 206.808 245.735C207.672 247.335 208.104 249.351 208.104 251.783V266.423H204.696V252.119C204.696 249.463 204.056 247.463 202.776 246.119C201.528 244.743 199.752 244.055 197.448 244.055C195.72 244.055 194.216 244.423 192.936 245.159C191.688 245.863 190.712 246.903 190.008 248.279C189.336 249.623 189 251.255 189 253.175V266.423H185.592V252.119C185.592 249.463 184.952 247.463 183.672 246.119C182.392 244.743 180.6 244.055 178.296 244.055C176.6 244.055 175.112 244.423 173.832 245.159C172.552 245.863 171.56 246.903 170.856 248.279C170.184 249.623 169.848 251.255 169.848 253.175V266.423H166.44V241.223H169.704V248.039L169.176 246.839C169.944 245.015 171.176 243.591 172.872 242.567C174.6 241.511 176.632 240.983 178.968 240.983C181.432 240.983 183.528 241.607 185.256 242.855C186.984 244.071 188.104 245.911 188.616 248.375L187.272 247.847C188.008 245.799 189.304 244.151 191.16 242.903C193.048 241.623 195.304 240.983 197.928 240.983ZM227.762 266.663C225.618 266.663 223.746 266.263 222.146 265.463C220.546 264.663 219.298 263.463 218.402 261.863C217.538 260.263 217.106 258.263 217.106 255.863V241.223H220.514V255.479C220.514 258.167 221.17 260.199 222.482 261.575C223.826 262.919 225.698 263.591 228.098 263.591C229.858 263.591 231.378 263.239 232.658 262.535C233.97 261.799 234.962 260.743 235.634 259.367C236.338 257.991 236.69 256.343 236.69 254.423V241.223H240.098V266.423H236.834V259.511L237.362 260.759C236.562 262.615 235.314 264.071 233.618 265.127C231.954 266.151 230.002 266.663 227.762 266.663ZM281.084 240.983C283.132 240.983 284.908 241.383 286.412 242.183C287.948 242.951 289.132 244.135 289.964 245.735C290.828 247.335 291.26 249.351 291.26 251.783V266.423H287.852V252.119C287.852 249.463 287.212 247.463 285.932 246.119C284.684 244.743 282.908 244.055 280.604 244.055C278.876 244.055 277.372 244.423 276.092 245.159C274.844 245.863 273.868 246.903 273.164 248.279C272.492 249.623 272.156 251.255 272.156 253.175V266.423H268.748V252.119C268.748 249.463 268.108 247.463 266.828 246.119C265.548 244.743 263.756 244.055 261.452 244.055C259.756 244.055 258.268 244.423 256.988 245.159C255.708 245.863 254.716 246.903 254.012 248.279C253.34 249.623 253.004 251.255 253.004 253.175V266.423H249.596V241.223H252.86V248.039L252.332 246.839C253.1 245.015 254.332 243.591 256.028 242.567C257.756 241.511 259.788 240.983 262.124 240.983C264.588 240.983 266.684 241.607 268.412 242.855C270.14 244.071 271.26 245.911 271.772 248.375L270.428 247.847C271.164 245.799 272.46 244.151 274.316 242.903C276.204 241.623 278.46 240.983 281.084 240.983ZM319.545 266.423L308.361 241.223H311.913L322.185 264.599H320.505L330.921 241.223H334.281L323.049 266.423H319.545ZM354.122 266.423V260.855L353.978 259.943V250.631C353.978 248.487 353.37 246.839 352.154 245.687C350.97 244.535 349.194 243.959 346.826 243.959C345.194 243.959 343.642 244.231 342.17 244.775C340.698 245.319 339.45 246.039 338.426 246.935L336.89 244.391C338.17 243.303 339.706 242.471 341.498 241.895C343.29 241.287 345.178 240.983 347.162 240.983C350.426 240.983 352.938 241.799 354.698 243.431C356.49 245.031 357.386 247.479 357.386 250.775V266.423H354.122ZM345.434 266.663C343.546 266.663 341.898 266.359 340.49 265.751C339.114 265.111 338.058 264.247 337.322 263.159C336.586 262.039 336.218 260.759 336.218 259.319C336.218 258.007 336.522 256.823 337.13 255.767C337.77 254.679 338.794 253.815 340.202 253.175C341.642 252.503 343.562 252.167 345.962 252.167H354.65V254.711H346.058C343.626 254.711 341.93 255.143 340.97 256.007C340.042 256.871 339.578 257.943 339.578 259.223C339.578 260.663 340.138 261.815 341.258 262.679C342.378 263.543 343.946 263.975 345.962 263.975C347.882 263.975 349.53 263.543 350.906 262.679C352.314 261.783 353.338 260.503 353.978 258.839L354.746 261.191C354.106 262.855 352.986 264.183 351.386 265.175C349.818 266.167 347.834 266.663 345.434 266.663ZM366.643 266.423V230.807H370.051V266.423H366.643ZM389.949 266.663C387.805 266.663 385.933 266.263 384.333 265.463C382.733 264.663 381.485 263.463 380.589 261.863C379.725 260.263 379.293 258.263 379.293 255.863V241.223H382.701V255.479C382.701 258.167 383.357 260.199 384.669 261.575C386.013 262.919 387.885 263.591 390.285 263.591C392.045 263.591 393.565 263.239 394.845 262.535C396.157 261.799 397.149 260.743 397.821 259.367C398.525 257.991 398.877 256.343 398.877 254.423V241.223H402.285V266.423H399.021V259.511L399.549 260.759C398.749 262.615 397.501 264.071 395.805 265.127C394.141 266.151 392.189 266.663 389.949 266.663ZM422.487 266.663C419.863 266.663 417.559 266.119 415.575 265.031C413.591 263.911 412.039 262.391 410.919 260.471C409.799 258.519 409.239 256.295 409.239 253.799C409.239 251.303 409.767 249.095 410.823 247.175C411.911 245.255 413.383 243.751 415.239 242.663C417.127 241.543 419.239 240.983 421.575 240.983C423.943 240.983 426.039 241.527 427.863 242.615C429.719 243.671 431.175 245.175 432.231 247.127C433.287 249.047 433.815 251.271 433.815 253.799C433.815 253.959 433.799 254.135 433.767 254.327C433.767 254.487 433.767 254.663 433.767 254.855H411.831V252.311H431.943L430.599 253.319C430.599 251.495 430.199 249.879 429.399 248.471C428.631 247.031 427.575 245.911 426.231 245.111C424.887 244.311 423.335 243.911 421.575 243.911C419.847 243.911 418.295 244.311 416.919 245.111C415.543 245.911 414.471 247.031 413.703 248.471C412.935 249.911 412.551 251.559 412.551 253.415V253.943C412.551 255.863 412.967 257.559 413.799 259.031C414.663 260.471 415.847 261.607 417.351 262.439C418.887 263.239 420.631 263.639 422.583 263.639C424.119 263.639 425.543 263.367 426.855 262.823C428.199 262.279 429.351 261.447 430.311 260.327L432.231 262.535C431.111 263.879 429.703 264.903 428.007 265.607C426.343 266.311 424.503 266.663 422.487 266.663ZM438.688 273.431L440.8 264.551L441.184 266.615C440.448 266.615 439.824 266.375 439.312 265.895C438.832 265.415 438.592 264.791 438.592 264.023C438.592 263.255 438.832 262.631 439.312 262.151C439.824 261.671 440.432 261.431 441.136 261.431C441.872 261.431 442.464 261.687 442.912 262.199C443.392 262.711 443.632 263.319 443.632 264.023C443.632 264.279 443.616 264.535 443.584 264.791C443.552 265.047 443.488 265.335 443.392 265.655C443.296 265.975 443.168 266.359 443.008 266.807L440.992 273.431H438.688ZM464.206 266.423V232.823H467.134L482.494 259.031H480.958L496.174 232.823H499.102V266.423H495.694V238.151H496.51L482.494 262.151H480.814L466.702 238.151H467.614V266.423H464.206ZM525.122 266.423V260.855L524.978 259.943V250.631C524.978 248.487 524.37 246.839 523.154 245.687C521.97 244.535 520.194 243.959 517.826 243.959C516.194 243.959 514.642 244.231 513.17 244.775C511.698 245.319 510.45 246.039 509.426 246.935L507.89 244.391C509.17 243.303 510.706 242.471 512.498 241.895C514.29 241.287 516.178 240.983 518.162 240.983C521.426 240.983 523.938 241.799 525.698 243.431C527.49 245.031 528.386 247.479 528.386 250.775V266.423H525.122ZM516.434 266.663C514.546 266.663 512.898 266.359 511.49 265.751C510.114 265.111 509.058 264.247 508.322 263.159C507.586 262.039 507.218 260.759 507.218 259.319C507.218 258.007 507.522 256.823 508.13 255.767C508.77 254.679 509.794 253.815 511.202 253.175C512.642 252.503 514.562 252.167 516.962 252.167H525.65V254.711H517.058C514.626 254.711 512.93 255.143 511.97 256.007C511.042 256.871 510.578 257.943 510.578 259.223C510.578 260.663 511.138 261.815 512.258 262.679C513.378 263.543 514.946 263.975 516.962 263.975C518.882 263.975 520.53 263.543 521.906 262.679C523.314 261.783 524.338 260.503 524.978 258.839L525.746 261.191C525.106 262.855 523.986 264.183 522.386 265.175C520.818 266.167 518.834 266.663 516.434 266.663ZM533.803 266.423L544.459 252.599L544.411 254.279L534.283 241.223H538.123L546.427 252.023L544.987 251.975L553.291 241.223H557.035L546.811 254.423L546.859 252.599L557.611 266.423H553.723L544.939 254.903L546.283 255.095L537.643 266.423H533.803ZM563.283 266.423V241.223H566.691V266.423H563.283ZM565.011 235.655C564.307 235.655 563.715 235.415 563.235 234.935C562.755 234.455 562.515 233.879 562.515 233.207C562.515 232.535 562.755 231.975 563.235 231.527C563.715 231.047 564.307 230.807 565.011 230.807C565.715 230.807 566.307 231.031 566.787 231.479C567.267 231.927 567.507 232.487 567.507 233.159C567.507 233.863 567.267 234.455 566.787 234.935C566.339 235.415 565.747 235.655 565.011 235.655ZM607.662 240.983C609.71 240.983 611.486 241.383 612.99 242.183C614.526 242.951 615.71 244.135 616.542 245.735C617.406 247.335 617.838 249.351 617.838 251.783V266.423H614.43V252.119C614.43 249.463 613.79 247.463 612.51 246.119C611.262 244.743 609.486 244.055 607.182 244.055C605.454 244.055 603.95 244.423 602.67 245.159C601.422 245.863 600.446 246.903 599.742 248.279C599.07 249.623 598.734 251.255 598.734 253.175V266.423H595.326V252.119C595.326 249.463 594.686 247.463 593.406 246.119C592.126 244.743 590.334 244.055 588.03 244.055C586.334 244.055 584.846 244.423 583.566 245.159C582.286 245.863 581.294 246.903 580.59 248.279C579.918 249.623 579.582 251.255 579.582 253.175V266.423H576.174V241.223H579.438V248.039L578.91 246.839C579.678 245.015 580.91 243.591 582.606 242.567C584.334 241.511 586.366 240.983 588.702 240.983C591.166 240.983 593.262 241.607 594.99 242.855C596.718 244.071 597.838 245.911 598.35 248.375L597.006 247.847C597.742 245.799 599.038 244.151 600.894 242.903C602.782 241.623 605.038 240.983 607.662 240.983ZM637.496 266.663C635.352 266.663 633.48 266.263 631.88 265.463C630.28 264.663 629.032 263.463 628.136 261.863C627.272 260.263 626.84 258.263 626.84 255.863V241.223H630.248V255.479C630.248 258.167 630.904 260.199 632.216 261.575C633.56 262.919 635.432 263.591 637.832 263.591C639.592 263.591 641.112 263.239 642.392 262.535C643.704 261.799 644.696 260.743 645.368 259.367C646.072 257.991 646.424 256.343 646.424 254.423V241.223H649.832V266.423H646.568V259.511L647.096 260.759C646.296 262.615 645.048 264.071 643.352 265.127C641.688 266.151 639.736 266.663 637.496 266.663ZM690.818 240.983C692.866 240.983 694.642 241.383 696.146 242.183C697.682 242.951 698.866 244.135 699.698 245.735C700.562 247.335 700.994 249.351 700.994 251.783V266.423H697.586V252.119C697.586 249.463 696.946 247.463 695.666 246.119C694.418 244.743 692.642 244.055 690.338 244.055C688.61 244.055 687.106 244.423 685.826 245.159C684.578 245.863 683.602 246.903 682.898 248.279C682.226 249.623 681.89 251.255 681.89 253.175V266.423H678.482V252.119C678.482 249.463 677.842 247.463 676.562 246.119C675.282 244.743 673.49 244.055 671.186 244.055C669.49 244.055 668.002 244.423 666.722 245.159C665.442 245.863 664.45 246.903 663.746 248.279C663.074 249.623 662.738 251.255 662.738 253.175V266.423H659.33V241.223H662.594V248.039L662.066 246.839C662.834 245.015 664.066 243.591 665.762 242.567C667.49 241.511 669.522 240.983 671.858 240.983C674.322 240.983 676.418 241.607 678.146 242.855C679.874 244.071 680.994 245.911 681.506 248.375L680.162 247.847C680.898 245.799 682.194 244.151 684.05 242.903C685.938 241.623 688.194 240.983 690.818 240.983ZM730.767 266.663C728.399 266.663 726.575 266.023 725.295 264.743C724.015 263.463 723.375 261.655 723.375 259.319V235.655H726.783V259.127C726.783 260.599 727.151 261.735 727.887 262.535C728.655 263.335 729.743 263.735 731.151 263.735C732.655 263.735 733.903 263.303 734.895 262.439L736.095 264.887C735.423 265.495 734.607 265.943 733.647 266.231C732.719 266.519 731.759 266.663 730.767 266.663ZM718.863 244.055V241.223H734.463V244.055H718.863ZM742.299 266.423V241.223H745.563V248.087L745.227 246.887C745.931 244.967 747.115 243.511 748.779 242.519C750.443 241.495 752.507 240.983 754.971 240.983V244.295C754.843 244.295 754.715 244.295 754.587 244.295C754.459 244.263 754.331 244.247 754.203 244.247C751.547 244.247 749.467 245.063 747.963 246.695C746.459 248.295 745.707 250.583 745.707 253.559V266.423H742.299ZM771.981 266.663C769.837 266.663 767.965 266.263 766.365 265.463C764.765 264.663 763.517 263.463 762.621 261.863C761.757 260.263 761.325 258.263 761.325 255.863V241.223H764.733V255.479C764.733 258.167 765.389 260.199 766.701 261.575C768.045 262.919 769.917 263.591 772.317 263.591C774.077 263.591 775.597 263.239 776.877 262.535C778.189 261.799 779.181 260.743 779.853 259.367C780.557 257.991 780.909 256.343 780.909 254.423V241.223H784.317V266.423H781.052V259.511L781.581 260.759C780.781 262.615 779.533 264.071 777.837 265.127C776.173 266.151 774.221 266.663 771.981 266.663ZM800.583 266.663C798.503 266.663 796.535 266.375 794.679 265.799C792.823 265.191 791.367 264.439 790.311 263.543L791.847 260.855C792.871 261.623 794.183 262.295 795.783 262.871C797.383 263.415 799.063 263.687 800.823 263.687C803.223 263.687 804.951 263.319 806.007 262.583C807.063 261.815 807.591 260.807 807.591 259.559C807.591 258.631 807.287 257.911 806.679 257.399C806.103 256.855 805.335 256.455 804.375 256.199C803.415 255.911 802.343 255.671 801.159 255.479C799.975 255.287 798.791 255.063 797.607 254.807C796.455 254.551 795.399 254.183 794.439 253.703C793.479 253.191 792.695 252.503 792.087 251.639C791.511 250.775 791.223 249.623 791.223 248.183C791.223 246.807 791.607 245.575 792.375 244.487C793.143 243.399 794.263 242.551 795.735 241.943C797.239 241.303 799.063 240.983 801.207 240.983C802.839 240.983 804.471 241.207 806.103 241.655C807.735 242.071 809.079 242.631 810.135 243.335L808.647 246.071C807.527 245.303 806.327 244.759 805.047 244.439C803.767 244.087 802.487 243.911 801.207 243.911C798.935 243.911 797.255 244.311 796.167 245.111C795.111 245.879 794.583 246.871 794.583 248.087C794.583 249.047 794.871 249.799 795.447 250.343C796.055 250.887 796.839 251.319 797.799 251.639C798.791 251.927 799.863 252.167 801.015 252.359C802.199 252.551 803.367 252.791 804.519 253.079C805.703 253.335 806.775 253.703 807.735 254.183C808.727 254.631 809.511 255.287 810.087 256.151C810.695 256.983 810.999 258.087 810.999 259.463C810.999 260.935 810.583 262.215 809.751 263.303C808.951 264.359 807.767 265.191 806.199 265.799C804.663 266.375 802.791 266.663 800.583 266.663ZM825.22 266.663C822.852 266.663 821.028 266.023 819.748 264.743C818.468 263.463 817.828 261.655 817.828 259.319V235.655H821.236V259.127C821.236 260.599 821.604 261.735 822.34 262.535C823.108 263.335 824.196 263.735 825.604 263.735C827.108 263.735 828.356 263.303 829.348 262.439L830.548 264.887C829.876 265.495 829.06 265.943 828.1 266.231C827.172 266.519 826.212 266.663 825.22 266.663ZM813.316 244.055V241.223H828.916V244.055H813.316Z" fill="black"/>
<path d="M946.202 136.8H954.802V197H946.202V136.8ZM911.63 197H903.03V136.8H911.63V197ZM946.976 170.168H910.77V162.686H946.976V170.168ZM999.911 197V187.368L999.481 185.562V169.136C999.481 165.639 998.449 162.944 996.385 161.052C994.378 159.103 991.34 158.128 987.269 158.128C984.574 158.128 981.937 158.587 979.357 159.504C976.777 160.364 974.598 161.539 972.821 163.03L969.381 156.838C971.732 154.946 974.541 153.513 977.809 152.538C981.134 151.506 984.603 150.99 988.215 150.99C994.464 150.99 999.28 152.509 1002.66 155.548C1006.05 158.587 1007.74 163.231 1007.74 169.48V197H999.911ZM984.947 197.516C981.564 197.516 978.583 196.943 976.003 195.796C973.48 194.649 971.531 193.073 970.155 191.066C968.779 189.002 968.091 186.68 968.091 184.1C968.091 181.635 968.664 179.399 969.811 177.392C971.015 175.385 972.936 173.78 975.573 172.576C978.268 171.372 981.88 170.77 986.409 170.77H1000.86V176.704H986.753C982.625 176.704 979.844 177.392 978.411 178.768C976.978 180.144 976.261 181.807 976.261 183.756C976.261 185.992 977.15 187.798 978.927 189.174C980.704 190.493 983.17 191.152 986.323 191.152C989.419 191.152 992.114 190.464 994.407 189.088C996.758 187.712 998.449 185.705 999.481 183.068L1001.12 188.744C1000.03 191.439 998.105 193.589 995.353 195.194C992.601 196.742 989.132 197.516 984.947 197.516ZM1023.02 197V151.42H1031.27V197H1023.02ZM1027.14 142.648C1025.54 142.648 1024.19 142.132 1023.1 141.1C1022.07 140.068 1021.55 138.807 1021.55 137.316C1021.55 135.768 1022.07 134.478 1023.1 133.446C1024.19 132.414 1025.54 131.898 1027.14 131.898C1028.75 131.898 1030.07 132.414 1031.1 133.446C1032.19 134.421 1032.73 135.653 1032.73 137.144C1032.73 138.692 1032.22 140.011 1031.19 141.1C1030.15 142.132 1028.81 142.648 1027.14 142.648ZM1047.03 197V151.42H1054.95V163.804L1054.17 160.708C1055.43 157.555 1057.56 155.147 1060.54 153.484C1063.52 151.821 1067.19 150.99 1071.54 150.99V158.988C1071.2 158.931 1070.86 158.902 1070.51 158.902C1070.23 158.902 1069.94 158.902 1069.65 158.902C1065.24 158.902 1061.74 160.221 1059.16 162.858C1056.58 165.495 1055.29 169.308 1055.29 174.296V197H1047.03ZM1114.43 162.772H1145.39V170.082H1114.43V162.772ZM1115.21 189.518H1150.3V197H1106.61V136.8H1149.09V144.282H1115.21V189.518ZM1155.39 197L1175 171.544L1174.91 175.758L1156.25 151.42H1165.45L1179.73 170.168H1176.2L1190.48 151.42H1199.51L1180.59 175.93L1180.67 171.544L1200.45 197H1191.08L1176.03 177.048L1179.38 177.564L1164.59 197H1155.39ZM1225.11 197.516C1220.53 197.516 1216.97 196.283 1214.45 193.818C1211.93 191.353 1210.66 187.827 1210.66 183.24V141.444H1218.92V182.896C1218.92 185.361 1219.52 187.253 1220.73 188.572C1221.99 189.891 1223.77 190.55 1226.06 190.55C1228.64 190.55 1230.79 189.833 1232.51 188.4L1235.09 194.334C1233.83 195.423 1232.31 196.226 1230.53 196.742C1228.81 197.258 1227 197.516 1225.11 197.516ZM1202.92 158.214V151.42H1231.99V158.214H1202.92ZM1263.85 197.516C1258.98 197.516 1254.68 196.513 1250.95 194.506C1247.29 192.499 1244.42 189.747 1242.35 186.25C1240.35 182.753 1239.34 178.739 1239.34 174.21C1239.34 169.681 1240.32 165.667 1242.27 162.17C1244.28 158.673 1247 155.949 1250.44 154C1253.94 151.993 1257.86 150.99 1262.22 150.99C1266.64 150.99 1270.53 151.965 1273.92 153.914C1277.3 155.863 1279.94 158.615 1281.83 162.17C1283.78 165.667 1284.75 169.767 1284.75 174.468C1284.75 174.812 1284.72 175.213 1284.67 175.672C1284.67 176.131 1284.64 176.561 1284.58 176.962H1245.79V171.028H1280.28L1276.93 173.092C1276.98 170.168 1276.38 167.559 1275.12 165.266C1273.86 162.973 1272.11 161.195 1269.87 159.934C1267.7 158.615 1265.14 157.956 1262.22 157.956C1259.35 157.956 1256.8 158.615 1254.57 159.934C1252.33 161.195 1250.58 163.001 1249.32 165.352C1248.06 167.645 1247.43 170.283 1247.43 173.264V174.64C1247.43 177.679 1248.12 180.402 1249.49 182.81C1250.93 185.161 1252.9 186.995 1255.43 188.314C1257.95 189.633 1260.84 190.292 1264.11 190.292C1266.81 190.292 1269.24 189.833 1271.42 188.916C1273.66 187.999 1275.61 186.623 1277.27 184.788L1281.83 190.12C1279.76 192.528 1277.18 194.363 1274.09 195.624C1271.05 196.885 1267.64 197.516 1263.85 197.516ZM1320.55 150.99C1324.28 150.99 1327.55 151.707 1330.36 153.14C1333.23 154.573 1335.46 156.752 1337.07 159.676C1338.67 162.6 1339.47 166.298 1339.47 170.77V197H1331.22V171.716C1331.22 167.301 1330.13 163.976 1327.95 161.74C1325.83 159.504 1322.82 158.386 1318.92 158.386C1316 158.386 1313.45 158.959 1311.27 160.106C1309.09 161.253 1307.4 162.944 1306.19 165.18C1305.05 167.416 1304.47 170.197 1304.47 173.522V197H1296.22V151.42H1304.13V163.718L1302.84 160.45C1304.33 157.469 1306.62 155.147 1309.72 153.484C1312.81 151.821 1316.43 150.99 1320.55 150.99ZM1367.83 197.516C1364.04 197.516 1360.43 197 1356.99 195.968C1353.61 194.936 1350.94 193.675 1348.99 192.184L1352.43 185.648C1354.38 186.967 1356.79 188.085 1359.66 189.002C1362.52 189.919 1365.45 190.378 1368.43 190.378C1372.27 190.378 1375.02 189.833 1376.68 188.744C1378.4 187.655 1379.26 186.135 1379.26 184.186C1379.26 182.753 1378.75 181.635 1377.72 180.832C1376.68 180.029 1375.31 179.427 1373.59 179.026C1371.93 178.625 1370.06 178.281 1368 177.994C1365.93 177.65 1363.87 177.249 1361.81 176.79C1359.74 176.274 1357.85 175.586 1356.13 174.726C1354.41 173.809 1353.03 172.576 1352 171.028C1350.97 169.423 1350.45 167.301 1350.45 164.664C1350.45 161.912 1351.23 159.504 1352.78 157.44C1354.32 155.376 1356.5 153.799 1359.31 152.71C1362.18 151.563 1365.56 150.99 1369.46 150.99C1372.44 150.99 1375.45 151.363 1378.49 152.108C1381.59 152.796 1384.11 153.799 1386.06 155.118L1382.53 161.654C1380.47 160.278 1378.32 159.332 1376.08 158.816C1373.85 158.3 1371.61 158.042 1369.37 158.042C1365.76 158.042 1363.07 158.644 1361.29 159.848C1359.51 160.995 1358.62 162.485 1358.62 164.32C1358.62 165.868 1359.14 167.072 1360.17 167.932C1361.26 168.735 1362.64 169.365 1364.3 169.824C1366.02 170.283 1367.91 170.684 1369.98 171.028C1372.04 171.315 1374.1 171.716 1376.17 172.232C1378.23 172.691 1380.1 173.35 1381.76 174.21C1383.48 175.07 1384.85 176.274 1385.89 177.822C1386.98 179.37 1387.52 181.434 1387.52 184.014C1387.52 186.766 1386.72 189.145 1385.11 191.152C1383.51 193.159 1381.24 194.735 1378.32 195.882C1375.39 196.971 1371.9 197.516 1367.83 197.516ZM1397.84 197V151.42H1406.09V197H1397.84ZM1401.97 142.648C1400.36 142.648 1399.01 142.132 1397.92 141.1C1396.89 140.068 1396.38 138.807 1396.38 137.316C1396.38 135.768 1396.89 134.478 1397.92 133.446C1399.01 132.414 1400.36 131.898 1401.97 131.898C1403.57 131.898 1404.89 132.414 1405.92 133.446C1407.01 134.421 1407.56 135.653 1407.56 137.144C1407.56 138.692 1407.04 140.011 1406.01 141.1C1404.98 142.132 1403.63 142.648 1401.97 142.648ZM1441.38 197.516C1436.79 197.516 1432.72 196.513 1429.17 194.506C1425.61 192.499 1422.8 189.747 1420.74 186.25C1418.68 182.695 1417.64 178.682 1417.64 174.21C1417.64 169.681 1418.68 165.667 1420.74 162.17C1422.8 158.673 1425.61 155.949 1429.17 154C1432.72 151.993 1436.79 150.99 1441.38 150.99C1445.91 150.99 1449.95 151.993 1453.51 154C1457.12 155.949 1459.93 158.673 1461.93 162.17C1464 165.61 1465.03 169.623 1465.03 174.21C1465.03 178.739 1464 182.753 1461.93 186.25C1459.93 189.747 1457.12 192.499 1453.51 194.506C1449.95 196.513 1445.91 197.516 1441.38 197.516ZM1441.38 190.292C1444.3 190.292 1446.91 189.633 1449.21 188.314C1451.56 186.995 1453.39 185.132 1454.71 182.724C1456.03 180.259 1456.69 177.421 1456.69 174.21C1456.69 170.942 1456.03 168.133 1454.71 165.782C1453.39 163.374 1451.56 161.511 1449.21 160.192C1446.91 158.873 1444.3 158.214 1441.38 158.214C1438.46 158.214 1435.85 158.873 1433.55 160.192C1431.26 161.511 1429.43 163.374 1428.05 165.782C1426.67 168.133 1425.99 170.942 1425.99 174.21C1425.99 177.421 1426.67 180.259 1428.05 182.724C1429.43 185.132 1431.26 186.995 1433.55 188.314C1435.85 189.633 1438.46 190.292 1441.38 190.292ZM1500.79 150.99C1504.51 150.99 1507.78 151.707 1510.59 153.14C1513.46 154.573 1515.69 156.752 1517.3 159.676C1518.9 162.6 1519.71 166.298 1519.71 170.77V197H1511.45V171.716C1511.45 167.301 1510.36 163.976 1508.18 161.74C1506.06 159.504 1503.05 158.386 1499.15 158.386C1496.23 158.386 1493.68 158.959 1491.5 160.106C1489.32 161.253 1487.63 162.944 1486.42 165.18C1485.28 167.416 1484.7 170.197 1484.7 173.522V197H1476.45V151.42H1484.36V163.718L1483.07 160.45C1484.56 157.469 1486.85 155.147 1489.95 153.484C1493.05 151.821 1496.66 150.99 1500.79 150.99ZM1548.06 197.516C1544.27 197.516 1540.66 197 1537.22 195.968C1533.84 194.936 1531.17 193.675 1529.22 192.184L1532.66 185.648C1534.61 186.967 1537.02 188.085 1539.89 189.002C1542.75 189.919 1545.68 190.378 1548.66 190.378C1552.5 190.378 1555.25 189.833 1556.91 188.744C1558.63 187.655 1559.49 186.135 1559.49 184.186C1559.49 182.753 1558.98 181.635 1557.95 180.832C1556.91 180.029 1555.54 179.427 1553.82 179.026C1552.16 178.625 1550.29 178.281 1548.23 177.994C1546.16 177.65 1544.1 177.249 1542.04 176.79C1539.97 176.274 1538.08 175.586 1536.36 174.726C1534.64 173.809 1533.26 172.576 1532.23 171.028C1531.2 169.423 1530.68 167.301 1530.68 164.664C1530.68 161.912 1531.46 159.504 1533.01 157.44C1534.55 155.376 1536.73 153.799 1539.54 152.71C1542.41 151.563 1545.79 150.99 1549.69 150.99C1552.67 150.99 1555.68 151.363 1558.72 152.108C1561.82 152.796 1564.34 153.799 1566.29 155.118L1562.76 161.654C1560.7 160.278 1558.55 159.332 1556.31 158.816C1554.08 158.3 1551.84 158.042 1549.6 158.042C1545.99 158.042 1543.3 158.644 1541.52 159.848C1539.74 160.995 1538.85 162.485 1538.85 164.32C1538.85 165.868 1539.37 167.072 1540.4 167.932C1541.49 168.735 1542.87 169.365 1544.53 169.824C1546.25 170.283 1548.14 170.684 1550.21 171.028C1552.27 171.315 1554.33 171.716 1556.4 172.232C1558.46 172.691 1560.33 173.35 1561.99 174.21C1563.71 175.07 1565.08 176.274 1566.12 177.822C1567.21 179.37 1567.75 181.434 1567.75 184.014C1567.75 186.766 1566.95 189.145 1565.34 191.152C1563.74 193.159 1561.47 194.735 1558.55 195.882C1555.62 196.971 1552.13 197.516 1548.06 197.516Z" fill="black"/>
</svg>
