<svg width="1466" height="135" viewBox="0 0 1466 135" fill="none" xmlns="http://www.w3.org/2000/svg">
<path d="M1465.9 134.416C1465.9 134.416 1464.97 133.91 1463.36 132.908C1461.65 131.95 1459.16 130.538 1455.79 128.716C1449.05 125.073 1438.84 119.652 1424.48 113.229C1410.12 106.805 1391.5 99.4223 1367.95 91.8555C1344.45 84.3845 1316 76.7295 1282.9 70.032C1278.79 69.1251 1274.53 68.4012 1270.23 67.5813C1265.93 66.7615 1261.63 65.9417 1257.23 65.1655C1252.73 64.4327 1248.24 63.7 1243.75 62.9672C1241.5 62.6009 1239.16 62.278 1236.87 61.8159C1235.74 61.6327 1234.62 61.4495 1233.4 61.3099C1232.18 61.1702 1231.06 60.9871 1229.84 60.8474C1225.15 60.2017 1220.33 59.5038 1215.54 58.9017C1213.11 58.6224 1210.72 58.2037 1208.28 57.9244C1205.84 57.6452 1203.4 57.3659 1200.83 57.0343C1195.85 56.5193 1190.84 55.9084 1185.82 55.2975C1184.6 55.1579 1183.24 54.9659 1182.02 54.8263C1180.71 54.7302 1179.49 54.5905 1178.17 54.4944C1175.64 54.2587 1173.01 54.0665 1170.43 53.7349C1129.09 49.745 1084.1 47.4096 1036.93 46.8772C989.806 46.4405 940.494 47.8068 890.172 51.0198C887.011 51.1847 883.849 51.3496 880.732 51.6102C879.173 51.7406 877.57 51.7751 876.011 51.9055L871.334 52.2965C865.055 52.7221 858.723 53.2871 852.348 53.7562C845.973 54.2253 839.598 54.6945 833.266 55.2594C826.935 55.8244 820.507 56.4329 814.176 56.9978C807.748 57.6064 801.321 58.2149 794.893 58.8234L790.025 59.3015L785.2 59.8755C781.986 60.1798 778.816 60.5798 775.603 60.8841C762.739 62.3363 749.832 63.6927 736.829 65.0926C723.826 66.4925 710.867 67.9883 697.96 69.3447C684.966 70.5094 672.016 71.7699 659.256 72.9434C633.512 75.0464 607.959 77.0623 582.668 78.3813C532.075 81.2544 482.537 82.3767 435.324 81.7484C388.015 81.1636 342.987 78.7324 301.356 74.8731C298.726 74.6809 296.191 74.4452 293.613 74.1136C291.079 73.8779 288.501 73.5463 285.967 73.3105C280.854 72.7432 275.881 72.2282 270.908 71.7131C269.689 71.5735 268.374 71.4774 267.154 71.3378C265.935 71.1981 264.716 71.0585 263.453 70.823C261.014 70.5437 258.532 70.1686 256.093 69.8893C251.216 69.3307 246.391 68.6328 241.705 67.9871C236.976 67.2456 232.386 66.5565 227.7 65.9108C225.357 65.588 223.11 65.2216 220.863 64.8552C219.74 64.6721 218.616 64.4889 217.493 64.3057C216.369 64.1225 215.246 63.9393 214.122 63.7561C209.628 63.0234 205.23 62.2471 200.971 61.5232C198.82 61.1133 196.616 60.8427 194.465 60.4328C192.314 60.0229 190.258 59.5695 188.15 59.2554C154.566 53.0108 125.442 45.8958 101.02 38.9561C100.227 38.7382 99.4346 38.5202 98.7378 38.2587C97.9452 38.0407 97.2484 37.7792 96.4558 37.5613C94.9665 37.0818 93.5207 36.6982 92.0313 36.2187C89.0962 35.3556 86.2568 34.449 83.461 33.6382C80.761 32.7839 78.061 31.9296 75.4568 31.0317C74.1068 30.6046 72.8526 30.1338 71.5462 29.8025C70.893 29.6369 70.292 29.3318 69.6387 29.1662C69.0813 28.957 68.3845 28.6955 67.8271 28.4863C57.9677 25.104 49.2319 21.9049 41.6195 18.889C26.4384 12.9531 15.5598 7.83696 8.48734 4.22877C7.60764 3.81913 6.82375 3.36595 5.94405 2.95631C5.20371 2.59897 4.46337 2.24163 3.81883 1.84075C2.47751 1.17837 1.4149 0.620585 0.587439 0.0715647C1.37134 0.524745 2.5733 1.13483 3.91463 1.79721C4.55917 2.19809 5.29951 2.55543 6.03985 2.91277C6.78019 3.27011 7.65988 3.67975 8.58314 4.18523C15.7514 7.74988 26.7258 12.8225 42.0463 18.8107C49.6586 21.8266 58.4903 24.9821 68.3497 28.3644C68.9071 28.5736 69.5603 28.7393 70.1613 29.0443C70.8145 29.21 71.4155 29.515 72.0687 29.6807C73.3229 30.1514 74.6294 30.4827 75.9794 30.9099C78.5836 31.8077 81.2836 32.662 83.9836 33.5164C86.7794 34.3271 89.6187 35.2338 92.5539 36.0969C93.9997 36.4805 95.489 36.9599 96.9784 37.4394C97.771 37.6574 98.4677 37.9189 99.2168 38.041C100.009 38.2589 100.802 38.4769 101.499 38.7384C125.921 45.6781 155.098 52.6537 188.638 58.8025C190.789 59.2124 192.801 59.57 194.952 59.9799C197.104 60.3898 199.211 60.7039 201.458 61.0703C205.813 61.7507 210.212 62.527 214.61 63.3032C215.733 63.4864 216.857 63.6696 217.98 63.8528C219.104 64.036 220.227 64.2191 221.351 64.4023C223.598 64.7687 225.941 65.0915 228.188 65.4579C232.778 66.1471 237.464 66.7927 242.149 67.4384C246.931 68.0405 251.712 68.6426 256.494 69.2447C258.932 69.524 261.371 69.8033 263.757 70.2219C264.977 70.3616 266.196 70.5012 267.415 70.6408C268.635 70.7805 269.854 70.9201 271.169 71.0162C276.142 71.5313 281.159 72.1421 286.228 72.6136C288.762 72.8494 291.34 73.181 293.875 73.4167C296.409 73.6525 299.039 73.8447 301.617 74.1762C343.109 77.9832 388.093 80.3186 435.167 80.8946C482.337 81.4271 531.64 80.296 582.136 77.4664C607.384 76.0516 632.841 74.0792 658.586 71.9763C671.345 70.8028 684.295 69.5423 697.289 68.3775C710.153 66.9253 723.06 65.5689 736.063 64.169C749.066 62.7691 762.025 61.2734 774.932 59.917C778.146 59.6127 781.316 59.2126 784.625 58.8648L789.45 58.2908L794.319 57.8127C800.746 57.2042 807.173 56.5957 813.601 55.9871C820.028 55.3787 826.36 54.8137 832.787 54.2052C839.162 53.7361 845.633 53.2234 852.008 52.7543C858.384 52.2852 864.759 51.816 870.994 51.2946L875.715 50.9994C877.274 50.869 878.876 50.8345 880.435 50.7041C883.597 50.5393 886.758 50.3744 889.92 50.2095C940.381 47.0489 989.832 45.7349 1037.1 46.2238C1084.36 46.7127 1129.49 49.1004 1171.01 53.2385C1173.55 53.4742 1176.22 53.7622 1178.76 53.9979C1180.07 54.0941 1181.29 54.2337 1182.61 54.3298C1183.92 54.4259 1185.18 54.6614 1186.4 54.8011C1191.42 55.4119 1196.44 56.0228 1201.45 56.6337C1203.89 56.913 1206.47 57.2445 1208.91 57.5238C1211.35 57.8032 1213.73 58.2218 1216.17 58.5011C1221 59.199 1225.78 59.8011 1230.51 60.5426C1231.73 60.6822 1232.85 60.8654 1234.07 61.0051C1235.19 61.1883 1236.41 61.3279 1237.58 61.6069C1239.83 61.9733 1242.21 62.392 1244.46 62.7583C1248.95 63.4911 1253.59 64.2761 1257.94 64.9565C1262.34 65.7328 1266.64 66.5526 1270.95 67.3724C1275.25 68.1922 1279.51 68.9162 1283.62 69.823C1316.76 76.6165 1345.11 84.3149 1368.56 91.9253C1392.02 99.5356 1410.58 107.058 1424.85 113.525C1439.21 119.949 1449.32 125.413 1455.97 129.1C1459.34 130.921 1461.83 132.333 1463.44 133.335C1465.15 134.294 1465.97 134.843 1465.97 134.843L1465.9 134.416Z" fill="url(#paint0_linear_201_10213)"/>
<defs>
<linearGradient id="paint0_linear_201_10213" x1="580.688" y1="-266.244" x2="883.338" y2="399.651" gradientUnits="userSpaceOnUse">
<stop stop-color="#D1D1D1" stop-opacity="0.5"/>
<stop offset="0.5" stop-color="#242424"/>
<stop offset="1" stop-color="#D1D1D1" stop-opacity="0.5"/>
</linearGradient>
</defs>
</svg>
