<svg width="26" height="26" viewBox="0 0 26 26" fill="none" xmlns="http://www.w3.org/2000/svg">
<path d="M12.997 9.33177C10.9772 9.33177 9.32888 10.9801 9.32888 13C9.32888 15.0199 10.9772 16.6682 12.997 16.6682C15.0169 16.6682 16.6652 15.0199 16.6652 13C16.6652 10.9801 15.0169 9.33177 12.997 9.33177ZM23.9988 13C23.9988 11.481 24.0125 9.97571 23.9272 8.45943C23.8419 6.69824 23.4402 5.13519 22.1523 3.84732C20.8617 2.55669 19.3014 2.15767 17.5403 2.07237C16.0213 1.98706 14.516 2.00082 12.9998 2.00082C11.4808 2.00082 9.97556 1.98706 8.45931 2.07237C6.69815 2.15767 5.13513 2.55945 3.84728 3.84732C2.55668 5.13794 2.15767 6.69824 2.07237 8.45943C1.98706 9.97846 2.00082 11.4837 2.00082 13C2.00082 14.5163 1.98706 16.0243 2.07237 17.5406C2.15767 19.3018 2.55944 20.8648 3.84728 22.1527C5.13788 23.4433 6.69815 23.8423 8.45931 23.9276C9.97831 24.0129 11.4835 23.9992 12.9998 23.9992C14.5188 23.9992 16.024 24.0129 17.5403 23.9276C19.3014 23.8423 20.8645 23.4406 22.1523 22.1527C23.4429 20.8621 23.8419 19.3018 23.9272 17.5406C24.0153 16.0243 23.9988 14.519 23.9988 13ZM12.997 18.6441C9.87374 18.6441 7.35309 16.1234 7.35309 13C7.35309 9.87664 9.87374 7.35594 12.997 7.35594C16.1203 7.35594 18.641 9.87664 18.641 13C18.641 16.1234 16.1203 18.6441 12.997 18.6441ZM18.8722 8.44292C18.1429 8.44292 17.554 7.85402 17.554 7.12478C17.554 6.39554 18.1429 5.80664 18.8722 5.80664C19.6014 5.80664 20.1903 6.39554 20.1903 7.12478C20.1905 7.29794 20.1565 7.46945 20.0904 7.62947C20.0242 7.78949 19.9271 7.93489 19.8047 8.05733C19.6822 8.17978 19.5369 8.27686 19.3768 8.34303C19.2168 8.40919 19.0453 8.44314 18.8722 8.44292Z" fill="#242424"/>
</svg>
