<?xml version="1.0" encoding="UTF-8" standalone="no" ?>
<!DOCTYPE svg PUBLIC "-//W3C//DTD SVG 1.1//EN" "http://www.w3.org/Graphics/SVG/1.1/DTD/svg11.dtd">
<svg xmlns="http://www.w3.org/2000/svg" xmlns:xlink="http://www.w3.org/1999/xlink" version="1.1" width="1080" height="1080" viewBox="0 0 1080 1080" xml:space="preserve">
<desc>Created with Fabric.js 5.2.4</desc>
<defs>
</defs>
<g transform="matrix(1 0 0 1 540 540)" id="e2f527bf-a5bd-458c-80d2-3d88a0eb2858"  >
<rect style="stroke: none; stroke-width: 1; stroke-dasharray: none; stroke-linecap: butt; stroke-dashoffset: 0; stroke-linejoin: miter; stroke-miterlimit: 4; fill: rgb(255,255,255); fill-rule: nonzero; opacity: 1; visibility: hidden;" vector-effect="non-scaling-stroke"  x="-540" y="-540" rx="0" ry="0" width="1080" height="1080" />
</g>
<g transform="matrix(1 0 0 1 540 540)" id="fcf2499f-896d-491c-ac9f-ff5442421f86"  >
</g>
<g transform="matrix(1 0 0 1 540 540)" id="c75ef514-d420-473c-9f5b-ebeac828eff4"  >
<path style="stroke: rgb(0,0,0); stroke-width: 0; stroke-dasharray: none; stroke-linecap: butt; stroke-dashoffset: 0; stroke-linejoin: miter; stroke-miterlimit: 4; fill: rgb(0,0,0); fill-rule: nonzero; opacity: 1;" vector-effect="non-scaling-stroke"  transform=" translate(-480, 480)" d="M 240 -80 Q 207 -80 183.5 -103.5 Q 160 -127 160 -160 L 160 -640 Q 160 -673 183.5 -696.5 Q 207 -720 240 -720 L 320 -720 Q 320 -786 367 -833 Q 414 -880 480 -880 Q 546 -880 593 -833 Q 640 -786 640 -720 L 720 -720 Q 753 -720 776.5 -696.5 Q 800 -673 800 -640 L 800 -160 Q 800 -127 776.5 -103.5 Q 753 -80 720 -80 L 240 -80 Z M 240 -160 L 720 -160 L 720 -640 L 640 -640 L 640 -560 Q 640 -543 628.5 -531.5 Q 617 -520 600 -520 Q 583 -520 571.5 -531.5 Q 560 -543 560 -560 L 560 -640 L 400 -640 L 400 -560 Q 400 -543 388.5 -531.5 Q 377 -520 360 -520 Q 343 -520 331.5 -531.5 Q 320 -543 320 -560 L 320 -640 L 240 -640 L 240 -160 Z M 400 -720 L 560 -720 Q 560 -753 536.5 -776.5 Q 513 -800 480 -800 Q 447 -800 423.5 -776.5 Q 400 -753 400 -720 Z M 240 -160 L 240 -640 L 240 -160 Z" stroke-linecap="round" />
</g>
</svg>