<svg width="33" height="33" viewBox="0 0 33 33" fill="none" xmlns="http://www.w3.org/2000/svg">
<path d="M23.3906 3.33984C22.3298 3.33984 21.3123 3.76127 20.5622 4.51142C19.8121 5.26156 19.3906 6.27898 19.3906 7.33984C19.3924 7.62101 19.4238 7.90121 19.4844 8.17578L10.4023 12.7168C10.0278 12.2855 9.56517 11.9395 9.04567 11.702C8.52618 11.4645 7.96184 11.341 7.39062 11.3398C6.32976 11.3398 5.31234 11.7613 4.5622 12.5114C3.81205 13.2616 3.39063 14.279 3.39062 15.3398C3.39063 16.4007 3.81205 17.4181 4.5622 18.1683C5.31234 18.9184 6.32976 19.3398 7.39062 19.3398C7.96202 19.3392 8.52664 19.2161 9.04648 18.979C9.56633 18.7418 10.0293 18.396 10.4043 17.9648L19.4805 22.5039C19.4212 22.7786 19.3911 23.0588 19.3906 23.3398C19.3906 24.4007 19.8121 25.4181 20.5622 26.1683C21.3123 26.9184 22.3298 27.3398 23.3906 27.3398C24.4515 27.3398 25.4689 26.9184 26.2191 26.1683C26.9692 25.4181 27.3906 24.4007 27.3906 23.3398C27.3906 22.279 26.9692 21.2616 26.2191 20.5114C25.4689 19.7613 24.4515 19.3398 23.3906 19.3398C22.8192 19.3405 22.2546 19.4635 21.7348 19.7007C21.2149 19.9379 20.7519 20.2837 20.377 20.7148L11.3008 16.1758C11.36 15.9011 11.3901 15.6209 11.3906 15.3398C11.3887 15.0593 11.3573 14.7798 11.2969 14.5059L20.3789 9.96484C20.7537 10.3957 21.2163 10.7414 21.7358 10.9786C22.2553 11.2157 22.8196 11.3389 23.3906 11.3398C24.4515 11.3398 25.4689 10.9184 26.2191 10.1683C26.9692 9.41813 27.3906 8.40071 27.3906 7.33984C27.3906 6.27898 26.9692 5.26156 26.2191 4.51142C25.4689 3.76127 24.4515 3.33984 23.3906 3.33984Z" fill="#242424"/>
</svg>
