<svg width="24" height="24" viewBox="0 0 24 24" fill="none" xmlns="http://www.w3.org/2000/svg">
<mask id="mask0_201_9612" style="mask-type:luminance" maskUnits="userSpaceOnUse" x="0" y="5" width="24" height="14">
<path d="M0 5H24V18.7749H0V5Z" fill="white"/>
</mask>
<g mask="url(#mask0_201_9612)">
<path d="M6.68332 11.511H1.40782C1.23242 11.511 1.08984 11.3684 1.08984 11.193C1.08984 11.0176 1.23242 10.875 1.40782 10.875H6.68332C6.85872 10.875 7.0013 11.0176 7.0013 11.193C7.0013 11.3684 6.85872 11.511 6.68332 11.511Z" fill="#242424"/>
<path d="M16.31 14.4126V16.7505H10.7176C10.5977 15.8848 9.85537 15.2138 8.95688 15.2138C8.0584 15.2138 7.31494 15.8837 7.19612 16.7505H4.90803C4.79148 16.7505 4.66248 16.5955 4.66248 16.3725V13.7088H4.02652V16.3725C4.02652 16.9315 4.42258 17.3864 4.90803 17.3864H7.22215C7.40094 18.1797 8.11045 18.7749 8.95688 18.7749C9.80332 18.7749 10.5128 18.1808 10.6916 17.3864H19.3438C19.5226 18.1797 20.2321 18.7749 21.0785 18.7749C21.925 18.7749 22.6345 18.1808 22.8133 17.3864H23.1595C23.6212 17.3864 23.998 17.0108 23.998 16.5479V13.2991C23.998 13.0943 23.9234 12.8963 23.7864 12.7424L20.5467 9.09751C20.3883 8.91871 20.1597 8.81574 19.9198 8.81574H16.9448V6.76076C16.9448 5.78985 16.2772 5 15.4568 5H5.51344C4.69303 5 4.02539 5.78985 4.02539 6.76076V8.67768H4.66135V6.76076C4.66135 6.14065 5.04383 5.63596 5.51344 5.63596H15.4568C15.9275 5.63596 16.3089 6.14065 16.3089 6.76076V13.7767M8.95575 18.139C8.32432 18.139 7.81171 17.6252 7.81171 16.9949C7.81171 16.3646 8.32545 15.8509 8.95575 15.8509C9.58605 15.8509 10.0998 16.3646 10.0998 16.9949C10.0998 17.6252 9.58605 18.139 8.95575 18.139ZM22.9717 12.7842H19.1073C19.0258 12.7842 18.9602 12.7186 18.9602 12.6371V10.9069C18.9602 10.8255 19.0258 10.7598 19.1073 10.7598H21.1725L22.9717 12.7842ZM21.0774 18.139C20.4471 18.139 19.9334 17.6252 19.9334 16.9949C19.9334 16.3646 20.4471 15.8509 21.0774 15.8509C21.7077 15.8509 22.2214 16.3646 22.2214 16.9949C22.2214 17.6252 21.7077 18.139 21.0774 18.139ZM23.361 16.5491C23.361 16.6611 23.2704 16.7516 23.1584 16.7516H22.8382C22.7182 15.8859 21.9748 15.2149 21.0763 15.2149C20.1778 15.2149 19.4343 15.8848 19.3155 16.7516H16.9437V9.45283H19.9186C19.9764 9.45283 20.0307 9.47772 20.0703 9.52072L20.6067 10.1239H19.1073C18.675 10.1239 18.3242 10.4758 18.3242 10.9069V12.6371C18.3242 13.0683 18.675 13.4202 19.1073 13.4202H23.3621V16.5491H23.361Z" fill="#242424"/>
<path d="M6.47976 13.7087H2.47618C2.30078 13.7087 2.1582 13.5661 2.1582 13.3907C2.1582 13.2153 2.30078 13.0728 2.47618 13.0728H6.47976C6.65516 13.0728 6.79774 13.2153 6.79774 13.3907C6.79774 13.5661 6.65516 13.7087 6.47976 13.7087ZM6.74318 9.31369H0.317978C0.142581 9.31369 0 9.17112 0 8.99572C0 8.82033 0.142581 8.67773 0.317978 8.67773H6.74318C6.91857 8.67773 7.06115 8.82033 7.06115 8.99572C7.06115 9.17112 6.91857 9.31369 6.74318 9.31369Z" fill="#242424"/>
</g>
</svg>
