<svg width="24" height="24" viewBox="0 0 24 24" fill="none" xmlns="http://www.w3.org/2000/svg">
<g clip-path="url(#clip0_1112_994)">
<path d="M21.1429 0H2.85714C1.28171 0 0 1.28171 0 2.85714V21.1429C0 22.7183 1.28171 24 2.85714 24H21.1429C22.7183 24 24 22.7183 24 21.1429V2.85714C24 1.28171 22.7183 0 21.1429 0ZM18.8606 10.4703C18.7295 10.483 18.598 10.4897 18.4663 10.4903C17.7554 10.4904 17.0556 10.3135 16.4302 9.97546C15.8048 9.63746 15.2734 9.14904 14.884 8.55429V15.1469C14.884 16.1106 14.5982 17.0526 14.0628 17.8539C13.5274 18.6552 12.7664 19.2797 11.8761 19.6485C10.9857 20.0173 10.006 20.1138 9.06084 19.9258C8.11565 19.7378 7.24744 19.2737 6.566 18.5923C5.88456 17.9108 5.42049 17.0426 5.23248 16.0975C5.04447 15.1523 5.14097 14.1726 5.50976 13.2822C5.87855 12.3919 6.50308 11.6309 7.30437 11.0955C8.10566 10.5601 9.04773 10.2743 10.0114 10.2743C10.1131 10.2743 10.2126 10.2834 10.3126 10.2897V12.6909C10.2126 12.6789 10.1143 12.6606 10.0114 12.6606C9.35187 12.6606 8.71933 12.9226 8.25296 13.389C7.78658 13.8553 7.52457 14.4879 7.52457 15.1474C7.52457 15.807 7.78658 16.4395 8.25296 16.9059C8.71933 17.3723 9.35187 17.6343 10.0114 17.6343C11.3851 17.6343 12.5983 16.552 12.5983 15.1783L12.6223 3.98171H14.9194C15.0244 4.97982 15.4768 5.90928 16.1977 6.60757C16.9185 7.30586 17.8619 7.72854 18.8629 7.80171V10.4703" fill="black"/>
</g>
<defs>
<clipPath id="clip0_1112_994">
<rect width="24" height="24" fill="white"/>
</clipPath>
</defs>
</svg>
