<svg width="20" height="20" viewBox="0 0 20 20" fill="none" xmlns="http://www.w3.org/2000/svg">
<path d="M10.5323 10.5816V18.8746C10.5323 19.0072 10.4796 19.1344 10.3859 19.2282C10.2921 19.322 10.1649 19.3746 10.0323 19.3746H9.92632C9.79372 19.3746 9.66654 19.322 9.57277 19.2282C9.479 19.1344 9.42632 19.0072 9.42632 18.8746V10.5816H1.13232C0.999716 10.5816 0.872539 10.529 0.778771 10.4352C0.685002 10.3414 0.632324 10.2142 0.632324 10.0816V9.97564C0.632324 9.84303 0.685002 9.71586 0.778771 9.62209C0.872539 9.52832 0.999716 9.47564 1.13232 9.47564H9.42632V1.18164C9.42632 1.04903 9.479 0.921855 9.57277 0.828087C9.66654 0.734319 9.79372 0.681641 9.92632 0.681641H10.0323C10.1649 0.681641 10.2921 0.734319 10.3859 0.828087C10.4796 0.921855 10.5323 1.04903 10.5323 1.18164V9.47564H18.8253C18.9579 9.47564 19.0851 9.52832 19.1789 9.62209C19.2726 9.71586 19.3253 9.84303 19.3253 9.97564V10.0816C19.3253 10.2142 19.2726 10.3414 19.1789 10.4352C19.0851 10.529 18.9579 10.5816 18.8253 10.5816H10.5323Z" fill="#242424"/>
</svg>
